<?xml version="1.0" encoding="UTF-8" standalone="no"?>
<svg
   xmlns:dc="http://purl.org/dc/elements/1.1/"
   xmlns:cc="http://creativecommons.org/ns#"
   xmlns:rdf="http://www.w3.org/1999/02/22-rdf-syntax-ns#"
   xmlns:svg="http://www.w3.org/2000/svg"
   xmlns="http://www.w3.org/2000/svg"
   xmlns:sodipodi="http://sodipodi.sourceforge.net/DTD/sodipodi-0.dtd"
   xmlns:inkscape="http://www.inkscape.org/namespaces/inkscape"
   id="logo"
   width="163px"
   height="24px"
   viewBox="0 0 163 24"
   version="1.1"
   sodipodi:docname="logo.svg"
   inkscape:version="1.0.2-2 (e86c870879, 2021-01-15)">
  <metadata
     id="metadata859">
    <rdf:RDF>
      <cc:Work
         rdf:about="">
        <dc:format>image/svg+xml</dc:format>
        <dc:type
           rdf:resource="http://purl.org/dc/dcmitype/StillImage" />
      </cc:Work>
    </rdf:RDF>
  </metadata>
  <defs
     id="defs857" />
  <sodipodi:namedview
     pagecolor="#ffffff"
     bordercolor="#666666"
     borderopacity="1"
     objecttolerance="10"
     gridtolerance="10"
     guidetolerance="10"
     inkscape:pageopacity="0"
     inkscape:pageshadow="2"
     inkscape:window-width="1920"
     inkscape:window-height="1017"
     id="namedview855"
     showgrid="false"
     inkscape:zoom="4.0429448"
     inkscape:cx="81.5"
     inkscape:cy="12"
     inkscape:window-x="-8"
     inkscape:window-y="-8"
     inkscape:window-maximized="1"
     inkscape:current-layer="g852" />
  <g
     stroke="none"
     stroke-width="1"
     fill="none"
     fill-rule="evenodd"
     id="g852">
    <path
       fill="#0d99d9"
       d="m 14.896194,14.401682 c 0.406303,-0.125906 0.939552,-0.107976 1.055581,-0.102398 C 36.14973,15.224054 29.232051,-2.23341 9.4424224,1.0305758 37.889357,-5.7619573 41.076316,23.451354 16.254987,17.992784 c -3.545558,-0.864207 -2.413566,-2.872722 -2.137846,-3.124135 0,0 0.283402,-0.313968 0.779053,-0.466967 z m 5.821263,-5.4780934 c -4.04e-4,0 -4.04e-4,-3.984e-4 -8.08e-4,-0.0012 -0.004,-0.00199 -0.0077,-0.00359 -0.01132,-0.00598 -0.05862,-0.033867 -0.09541,-0.055383 -0.101879,-0.058172 -4.05e-4,-7.968e-4 -0.0016,7.969e-4 -0.002,7.969e-4 C 4.5214957,-0.31693395 0.1710115,20.824068 21.633562,22.351273 7.419797,20.313274 6.176224,7.2752598 18.961254,11.234915 l 1.813207,0.640286 c 0.552655,0.176507 0.896699,0.217546 1.033751,0.228304 0.54093,0.04144 1.088328,-0.09363 1.245998,-0.521553 0.369919,-1.000871 -1.80876,-2.3483804 -2.336753,-2.6583634 z M 4.0234196,24 C 3.8641323,23.725478 3.6656296,23.451354 3.465914,23.137387 2.8683845,22.194687 2.4701662,21.290637 2.1511873,20.153103 1.672921,18.581672 1.5536577,16.697071 1.7921844,15.0085 2.2312352,11.828584 3.6656296,9.5116798 5.8168168,7.4700949 7.8083125,5.5066034 11.235011,4.2495385 14.14342,4.2104918 c 2.828764,-0.039047 5.538266,0.8638088 7.729073,2.4742862 0.27855,0.1964288 0.598742,0.4709511 0.837269,0.6287316 C 22.590094,6.8812068 21.474679,5.899461 21.11608,5.5850952 20.596981,5.1141441 19.840973,4.5252561 19.202611,4.1714451 17.330379,3.1116059 15.338479,2.5223194 13.306959,2.444226 H 11.872565 C 9.8402364,2.5617645 7.8483365,3.1510511 6.0953675,4.2104918 2.3901182,6.4875523 0.15847875,10.219302 0,14.420409 v 0.941503 c 0.03961969,0.746271 0.11926334,1.570236 0.31817034,2.356349 0.31938319,1.570634 1.15584366,3.298252 2.07194786,4.55452 C 2.7082886,22.66524 3.6256056,23.80397 4.0234196,24 Z"
       id="path847" />
    <g
       class="text"
       transform="translate(40,6)"
       fill="#ffffff"
       id="g850"
       style="fill:#ffffff;fill-opacity:1;stroke:#000000;stroke-width:0.2;stroke-miterlimit:4;stroke-dasharray:none;stroke-opacity:1">
      <path
         d="m 118.89655,2.3308095 c 0.6525,0 1.19995,0.057169 1.64417,0.1733815 0.44238,0.1162124 0.80089,0.2980287 1.07369,0.5454487 0.2728,0.2464829 0.4645,0.56513 0.57693,0.9531296 0.11244,0.3889369 0.16866,0.8556611 0.16866,1.4001726 v 4.9052901 c 0,0.221179 -0.10783,0.331768 -0.32257,0.331768 h -1.43128 c -0.21473,0 -0.32164,-0.110589 -0.32164,-0.331768 V 5.9184004 c 0,-0.3130239 -0.0194,-0.5782507 -0.059,-0.7947432 -0.0378,-0.2164926 -0.11152,-0.3889369 -0.21843,-0.5145213 -0.10783,-0.1265216 -0.25897,-0.2174297 -0.45344,-0.2727244 -0.19446,-0.055295 -0.45251,-0.08341 -0.77416,-0.08341 h -2.57224 v 6.0552315 c 0,0.221179 -0.11152,0.331768 -0.33547,0.331768 h -1.43221 c -0.21473,0 -0.32164,-0.110589 -0.32164,-0.331768 V 4.253001 h -2.48377 c -0.31243,0 -0.57048,0.028116 -0.77509,0.08341 -0.2046,0.055295 -0.36772,0.1462028 -0.48938,0.2727244 -0.12165,0.1255844 -0.20736,0.2980287 -0.25621,0.5145213 -0.0479,0.2164925 -0.0728,0.4817193 -0.0728,0.7947432 v 4.3898321 c 0,0.221178 -0.10782,0.331768 -0.32164,0.331768 h -1.4322 c -0.22395,0 -0.33547,-0.110589 -0.33547,-0.331768 V 5.4029419 c 0,-0.5445115 0.0581,-1.0112357 0.17511,-1.4001726 0.11704,-0.3879996 0.30874,-0.7066467 0.57693,-0.9531296 0.26819,-0.24742 0.62394,-0.4292363 1.06724,-0.5454487 0.4433,-0.1162125 0.99627,-0.1733815 1.65892,-0.1733815 z m -15.4685,6.6447282 c 0.15575,0 0.26543,-0.037488 0.32902,-0.114338 0.0627,-0.074976 0.0949,-0.2080578 0.0949,-0.4001832 V 7.128322 h -5.349094 c -0.30137,0 -0.513343,0.063729 -0.634997,0.1893139 -0.121654,0.1265216 -0.182481,0.3102122 -0.182481,0.5529463 v 0.3177099 c 0,0.2727244 0.06083,0.4714102 0.182481,0.5979318 0.121654,0.1265216 0.333627,0.1893138 0.634997,0.1893138 z m -0.96494,-6.6447282 c 0.65343,0 1.20364,0.057169 1.65247,0.1733815 0.44791,0.1162124 0.8055,0.2980287 1.07369,0.5454487 0.26727,0.2464829 0.45897,0.56513 0.57694,0.9531296 0.11704,0.3889369 0.1751,0.8556611 0.1751,1.4001726 v 4.0261993 c 0,0.2427341 -0.0175,0.4423571 -0.0516,0.5979318 -0.0332,0.157449 -0.0922,0.281159 -0.17511,0.37113 -0.082,0.09091 -0.19262,0.154638 -0.32809,0.189314 -0.1364,0.03468 -0.31243,0.05248 -0.52625,0.05248 h -6.955476 c -0.428555,0 -0.787065,-0.04217 -1.074611,-0.127459 C 96.542617,10.426319 96.31129,10.296986 96.136182,10.125479 95.961074,9.9549088 95.836655,9.7318559 95.763847,9.4591315 95.690117,9.1873443 95.654174,8.8640113 95.654174,8.4910068 V 7.7646789 c 0,-0.3130238 0.03594,-0.5932458 0.109673,-0.8406659 0.07281,-0.2464828 0.197227,-0.456415 0.372335,-0.6279221 0.175108,-0.1715071 0.406435,-0.2999031 0.693981,-0.3861253 0.287546,-0.085285 0.646056,-0.128396 1.074611,-0.128396 H 103.852 V 5.4938501 c 0,-0.2417969 -0.0249,-0.4489175 -0.0728,-0.6204246 -0.0498,-0.1715071 -0.13179,-0.3102122 -0.24884,-0.4161155 -0.11705,-0.1059033 -0.27741,-0.1846279 -0.48293,-0.2352365 -0.20368,-0.049671 -0.46726,-0.074976 -0.78891,-0.074976 h -6.108504 c -0.174186,0 -0.262662,-0.090908 -0.262662,-0.2727244 V 2.6035339 c 0,-0.1818163 0.08848,-0.2727244 0.262662,-0.2727244 z m -16.754154,3.435765 h 5.918654 c 0.165891,0 0.248837,-0.086222 0.248837,-0.2577293 V 4.8734255 c 0,-0.3130238 -0.06359,-0.5351396 -0.190775,-0.6663472 C 91.559409,4.0768079 91.325318,4.0112041 90.985239,4.0112041 h -3.668053 c -0.633154,0 -1.060787,0.1030917 -1.279211,0.3102123 -0.218424,0.2061833 -0.329019,0.5520091 -0.329019,1.0365401 z m 5.685483,-3.435765 c 0.495833,0 0.907797,0.043111 1.234051,0.128396 0.326254,0.085285 0.584309,0.2277389 0.775084,0.4236131 0.188932,0.1968115 0.323489,0.4536035 0.401827,0.7722505 0.07742,0.3177099 0.116124,0.7038351 0.116124,1.1574386 v 1.4376605 c 0,0.3233331 -0.06728,0.5482604 -0.203678,0.6738448 -0.137322,0.1265217 -0.34653,0.1893139 -0.628546,0.1893139 h -7.380345 v 0.3636325 c 0,0.4742218 0.110595,0.817236 0.329019,1.0299797 0.218424,0.2108694 0.646057,0.3167727 1.279211,0.3167727 h 6.09284 c 0.176029,0 0.263583,0.090908 0.263583,0.2727244 v 1.2717768 c 0,0.181816 -0.08755,0.271787 -0.263583,0.271787 h -6.29744 c -0.662646,0 -1.215619,-0.0553 -1.658919,-0.165884 C 85.010367,10.36259 84.654621,10.184522 84.387351,9.9371021 84.119159,9.6887448 83.92654,9.3719722 83.809494,8.9830353 83.692448,8.5940985 83.634386,8.1283115 83.634386,7.5828627 V 5.4029419 c 0,-0.5445115 0.05806,-1.0112357 0.175108,-1.4001726 0.117046,-0.3879996 0.309665,-0.7066467 0.577857,-0.9531296 0.26727,-0.24742 0.623016,-0.4292363 1.066316,-0.5454487 0.4433,-0.1162125 0.996273,-0.1733815 1.658919,-0.1733815 z m -9.360909,0 c 0.175108,0 0.263583,0.090908 0.263583,0.2727244 v 1.2708394 c 0,0.1818162 -0.08848,0.2727244 -0.263583,0.2727244 h -3.886478 c -0.311508,0 -0.569562,0.028116 -0.775084,0.082473 -0.2046,0.055295 -0.367727,0.14714 -0.489381,0.2727244 -0.121654,0.1265217 -0.206443,0.2980287 -0.255289,0.5145213 -0.04885,0.2174297 -0.07373,0.4826566 -0.07373,0.7947432 v 4.4966724 c 0,0.221179 -0.106908,0.331768 -0.320724,0.331768 h -1.4322 c -0.224876,0 -0.336392,-0.110589 -0.336392,-0.331768 V 5.4029419 c 0,-0.5445115 0.05806,-1.0112357 0.17603,-1.4001726 0.117046,-0.3879996 0.308743,-0.7066467 0.576013,-0.9531296 0.268192,-0.24742 0.623938,-0.4292363 1.067238,-0.5454487 0.4433,-0.1162125 0.996273,-0.1733815 1.658919,-0.1733815 z m -14.196658,0 V 0.33270501 C 67.836872,0.11058927 67.94378,0 68.158518,0 h 1.446024 C 69.81928,0 69.92711,0.11058927 69.92711,0.33270501 V 2.3308095 h 2.556578 c 0.176029,0 0.263583,0.090908 0.263583,0.2727244 V 3.844383 c 0,0.1818162 -0.08755,0.2727244 -0.263583,0.2727244 H 69.92711 v 3.5107407 c 0,0.4245504 0.08202,0.7347627 0.247916,0.9315741 0.165892,0.1968114 0.492146,0.2952171 0.979683,0.2952171 h 1.416533 c 0.176029,0 0.263583,0.089971 0.263583,0.2727244 v 1.2408493 c 0,0.181816 -0.08755,0.271787 -0.263583,0.271787 h -1.76767 c -0.584308,0 -1.067238,-0.0553 -1.446946,-0.165884 C 68.976918,10.36259 68.672783,10.186397 68.443299,9.9436625 68.214737,9.7018656 68.056218,9.3888417 67.968664,9.0055281 67.880188,8.6222144 67.836872,8.1629878 67.836872,7.6278481 V 4.1171074 H 66.44891 c -0.17603,0 -0.262662,-0.090908 -0.262662,-0.2727244 V 2.6035339 c 0,-0.1818163 0.08663,-0.2727244 0.262662,-0.2727244 z M 64.187251,0.83879151 c 0.198149,0 0.296762,0.1021545 0.296762,0.30833789 v 1.33082 c 0,0.204309 -0.09861,0.3074007 -0.296762,0.3074007 h -6.772996 c -0.260819,0 -0.445144,0.07029 -0.553895,0.2099322 -0.10783,0.1396424 -0.161284,0.3317678 -0.161284,0.5745019 v 0.475159 c 0,0.5238932 0.23317,0.7853713 0.702276,0.7853713 h 5.068918 c 0.7843,0 1.374138,0.2071205 1.771357,0.6222989 0.396297,0.4161156 0.594445,1.0102986 0.594445,1.7853607 V 8.358862 c 0,0.6804052 -0.19354,1.2314771 -0.581543,1.651341 C 63.866527,10.430068 63.263786,10.64 62.443543,10.64 h -7.489096 c -0.207365,0 -0.311508,-0.102154 -0.311508,-0.307401 V 9.0017793 c 0,-0.2052462 0.104143,-0.3074007 0.311508,-0.3074007 h 7.096485 c 0.261741,0 0.446065,-0.07029 0.554816,-0.2099322 0.10783,-0.1396424 0.162206,-0.3317678 0.162206,-0.5745019 V 7.3363798 c 0,-0.522956 -0.234092,-0.7844341 -0.703197,-0.7844341 h -5.068919 c -0.784299,0 -1.375059,-0.2080577 -1.771356,-0.6232361 C 54.828185,5.5135312 54.630036,4.918411 54.630036,4.1442861 V 3.1208667 c 0,-0.6813423 0.193541,-1.2314771 0.581543,-1.6513415 0.387081,-0.4198643 0.990743,-0.63073369 1.810986,-0.63073369 z M 43.604678,7.204235 c 0,0.323333 0.02488,0.5904342 0.07281,0.803178 0.04885,0.2108694 0.134557,0.3795649 0.256211,0.5060865 0.121654,0.1265216 0.284781,0.2174298 0.489381,0.2727244 0.2046,0.055295 0.462654,0.083411 0.774162,0.083411 h 3.726116 c 0.321646,0 0.585229,-0.028116 0.788908,-0.083411 0.205521,-0.055295 0.368648,-0.1462028 0.489381,-0.2727244 0.122575,-0.1265216 0.208286,-0.2952171 0.25621,-0.5060865 0.04885,-0.2127438 0.07373,-0.479845 0.07373,-0.803178 V 5.7665745 c 0,-0.3130239 -0.02488,-0.5754391 -0.07373,-0.7872457 C 50.409931,4.7675222 50.32422,4.5950779 50.201645,4.4648075 50.080912,4.3335999 49.917785,4.2426918 49.712264,4.1920831 49.508585,4.1414745 49.245002,4.1171074 48.923356,4.1171074 H 45.19724 c -0.311508,0 -0.569562,0.024367 -0.774162,0.074976 -0.2046,0.050609 -0.367727,0.1415168 -0.489381,0.2727244 -0.121654,0.1302704 -0.207365,0.3027147 -0.256211,0.5145213 -0.04792,0.2118066 -0.07281,0.4742218 -0.07281,0.7872457 z m 5.523278,-4.8734255 c 0.652508,0 1.203637,0.057169 1.651545,0.1733815 0.447908,0.1162124 0.806419,0.2980287 1.074611,0.5454487 0.26727,0.2464829 0.459889,0.56513 0.576014,0.9531296 0.117967,0.3889369 0.176029,0.8556611 0.176029,1.4001726 v 2.1799208 c 0,0.5454488 -0.05806,1.0112358 -0.176029,1.4001726 C 52.314001,9.3719722 52.121382,9.6887448 51.854112,9.9371021 51.58592,10.184522 51.227409,10.36259 50.779501,10.474116 50.331593,10.584705 49.780464,10.64 49.127956,10.64 h -4.134394 c -0.663568,0 -1.215619,-0.0553 -1.659841,-0.165884 C 42.890421,10.36259 42.535597,10.184522 42.267405,9.9371021 41.999213,9.6887448 41.807516,9.3719722 41.69047,8.9830353 41.573424,8.5940985 41.515362,8.1283115 41.515362,7.5828627 V 5.4029419 c 0,-0.5445115 0.05806,-1.0112357 0.175108,-1.4001726 0.117046,-0.3879996 0.308743,-0.7066467 0.576935,-0.9531296 0.268192,-0.24742 0.623016,-0.4292363 1.066316,-0.5454487 0.444222,-0.1162125 0.996273,-0.1733815 1.659841,-0.1733815 z m -9.403305,0 c 0.174187,0 0.263584,0.090908 0.263584,0.2727244 v 1.2708394 c 0,0.1818162 -0.0894,0.2727244 -0.263584,0.2727244 h -3.887399 c -0.311508,0 -0.569562,0.028116 -0.775084,0.082473 -0.203678,0.055295 -0.366805,0.14714 -0.488459,0.2727244 -0.122576,0.1265217 -0.207365,0.2980287 -0.256211,0.5145213 -0.04885,0.2174297 -0.07281,0.4826566 -0.07281,0.7947432 v 4.4966724 c 0,0.221179 -0.106908,0.331768 -0.320724,0.331768 h -1.433122 c -0.223954,0 -0.33547,-0.110589 -0.33547,-0.331768 V 5.4029419 c 0,-0.5445115 0.05806,-1.0112357 0.175108,-1.4001726 0.117046,-0.3879996 0.309665,-0.7066467 0.576935,-0.9531296 0.268192,-0.24742 0.623938,-0.4292363 1.067238,-0.5454487 0.4433,-0.1162125 0.996273,-0.1733815 1.657997,-0.1733815 z m -9.666887,0 c 0.175108,0 0.262662,0.090908 0.262662,0.2727244 v 1.2708394 c 0,0.1818162 -0.08755,0.2727244 -0.262662,0.2727244 h -5.669816 c -0.321646,0 -0.58523,0.028116 -0.788908,0.082473 -0.2046,0.055295 -0.365884,0.14714 -0.48293,0.2727244 -0.117046,0.1265217 -0.19907,0.2980287 -0.247916,0.5145213 -0.04885,0.2174297 -0.07281,0.4826566 -0.07281,0.7947432 v 1.3476896 c 0,0.3223959 0.02396,0.5904343 0.07281,0.8022408 0.04885,0.2118066 0.13087,0.3814393 0.247916,0.5070238 0.117046,0.1255844 0.27833,0.2164925 0.48293,0.2717871 0.203678,0.056232 0.467262,0.083411 0.788908,0.083411 h 5.669816 c 0.175108,0 0.262662,0.090908 0.262662,0.2727244 v 1.2717767 c 0,0.181816 -0.08755,0.271787 -0.262662,0.271787 h -5.874416 c -0.662646,0 -1.215619,-0.0553 -1.658919,-0.165884 C 22.081129,10.36259 21.725384,10.184522 21.458113,9.9371021 21.189921,9.6887448 20.998224,9.3719722 20.881178,8.9830353 20.764132,8.5940985 20.705149,8.1283115 20.705149,7.5828627 V 5.4029419 c 0,-0.5445115 0.05898,-1.0112357 0.176029,-1.4001726 0.117046,-0.3879996 0.308743,-0.7066467 0.576935,-0.9531296 0.267271,-0.24742 0.623016,-0.4292363 1.066316,-0.5454487 0.4433,-0.1162125 0.996273,-0.1733815 1.658919,-0.1733815 z m -11.66865,0 c 0.214738,0 0.321646,0.1152752 0.321646,0.3477002 v 7.6297223 c 0,0.221179 -0.106908,0.331768 -0.321646,0.331768 h -1.4322 c -0.214738,0 -0.321646,-0.110589 -0.321646,-0.331768 V 2.6785097 c 0,-0.232425 0.106908,-0.3477002 0.321646,-0.3477002 z M 2.6763888,0.83879151 c 0.1981487,0 0.3695703,0.014058 0.5133432,0.0431111 0.143773,0.0271787 0.2709567,0.080599 0.3787865,0.16026069 0.1078297,0.079662 0.2045999,0.1865023 0.2903107,0.3223958 0.085711,0.1340192 0.1732649,0.3148983 0.2635838,0.5388884 l 2.8127888,6.7206413 c 0.035022,0.084348 0.098613,0.1255844 0.1889324,0.1255844 h 0.1612837 c 0.090319,0 0.1539108,-0.041237 0.1889325,-0.1255844 L 10.287139,1.9034475 c 0.0894,-0.2239901 0.177873,-0.4048692 0.263584,-0.5388884 0.08571,-0.1358935 0.182481,-0.242734 0.290311,-0.3223958 0.107829,-0.0796618 0.231327,-0.133082 0.371413,-0.16026072 0.140087,-0.0290531 0.308743,-0.0431111 0.506892,-0.0431111 h 1.446946 c 0.468184,0 0.783378,0.10965207 0.945583,0.32989342 0.162206,0.218367 0.243309,0.5941831 0.243309,1.1265111 v 8.037403 c 0,0.205247 -0.103222,0.307401 -0.310587,0.307401 h -1.377824 c -0.19907,0 -0.298605,-0.102154 -0.298605,-0.307401 V 3.0233982 c 0,-0.09372 -0.03594,-0.1405796 -0.108752,-0.1405796 h -0.120732 c -0.09032,0 -0.148381,0.038425 -0.175108,0.1124637 L 9.2318826,9.2688805 C 9.1240528,9.5209865 9.0143799,9.7327931 8.9010204,9.9052374 8.7885826,10.078619 8.6669286,10.220136 8.5360583,10.332599 8.4051881,10.445063 8.2577286,10.523787 8.0899935,10.570647 7.92318,10.617507 7.7268746,10.64 7.501999,10.64 H 6.8540991 C 6.6283018,10.64 6.4319964,10.61751 6.2651829,10.57065 6.0983695,10.523787 5.9499884,10.445063 5.8191182,10.332599 5.6891695,10.220136 5.5665939,10.078619 5.454156,9.9052374 5.3417182,9.7327931 5.2311236,9.5209865 5.1223723,9.2688805 L 2.3925294,2.9952823 C 2.3648808,2.9212437 2.3068186,2.8828186 2.2164997,2.8828186 h -0.121654 c -0.071887,0 -0.1078298,0.04686 -0.1078298,0.1405796 v 7.3092008 c 0,0.205247 -0.099535,0.307401 -0.2976837,0.307401 H 0.31058645 C 0.10322161,10.64 0,10.537846 0,10.332599 V 2.295196 C 0,1.762868 0.08110269,1.3870519 0.24330808,1.1686849 0.40551346,0.94844358 0.72531612,0.83879151 1.2027161,0.83879151 Z"
         id="Fill-2-Copy"
         style="fill:#ffffff;fill-opacity:1;stroke:#000000;stroke-width:0.2;stroke-miterlimit:4;stroke-dasharray:none;stroke-opacity:1" />
    </g>
  </g>
</svg>
