<svg width="24" height="24" viewBox="0 0 24 24" fill="none" xmlns="http://www.w3.org/2000/svg"><rect width="24" height="24" fill="none" rx="0" ry="0"></rect><path fill-rule="evenodd" clip-rule="evenodd" d="M21.3618 2.83246C21.3618 2.27972 20.9146 1.83246 20.3618 1.83246H3.63818C3.08545 1.83246 2.63818 2.27972 2.63818 2.83246C2.63818 3.15564 2.80103 3.42957 3.03857 3.6123V7.24847C3.03857 7.30579 3.05615 7.3576 3.07129 7.4101C3.05615 7.46259 3.03857 7.5144 3.03857 7.57172C3.03857 7.90277 3.30713 8.17133 3.63818 8.17133H20.3618C20.6929 8.17133 20.9614 7.90277 20.9614 7.57172C20.9614 7.55719 20.9541 7.54498 20.9531 7.5307C20.9541 7.51642 20.9614 7.50421 20.9614 7.48969V3.6123C21.199 3.42957 21.3618 3.15564 21.3618 2.83246ZM19.7622 6.97211H4.23779V3.83246H19.7622V6.97211Z
" fill="#ffffff"></path><path fill-rule="evenodd" clip-rule="evenodd" d="M15.9282 11.349H8.45459C8.12354 11.349 7.85498 11.0804 7.85498 10.7494C7.85498 10.4183 8.12354 10.1498 8.45459 10.1498H15.9282C16.2593 10.1498 16.5278 10.4183 16.5278 10.7494C16.5278 11.0804 16.2593 11.349 15.9282 11.349ZM20.3618 11.8636C20.0308 11.8636 19.7622 12.1322 19.7622 12.4633V15.5092H4.23779V12.4476C4.23779 12.1166 3.96924 11.848 3.63818 11.848C3.30713 11.848 3.03857 12.1166 3.03857 12.4476V19.556C3.03857 19.8871 3.30713 20.1556 3.63818 20.1556H20.3618C20.6929 20.1556 20.9614 19.8871 20.9614 19.556V12.4633C20.9614 12.1322 20.6929 11.8636 20.3618 11.8636ZM4.23779 18.9564V16.7084H19.7622V18.9564H4.23779ZM8.45459 13.5306H15.9282C16.2593 13.5306 16.5278 13.2621 16.5278 12.931C16.5278 12.6 16.2593 12.3314 15.9282 12.3314H8.45459C8.12354 12.3314 7.85498 12.6 7.85498 12.931C7.85498 13.2621 8.12354 13.5306 8.45459 13.5306Z
" fill="#00a0e3"></path><path fill-rule="evenodd" clip-rule="evenodd" d="M15.9282 11.349H8.45459C8.12354 11.349 7.85498 11.0804 7.85498 10.7494C7.85498 10.4183 8.12354 10.1498 8.45459 10.1498H15.9282C16.2593 10.1498 16.5278 10.4183 16.5278 10.7494C16.5278 11.0804 16.2593 11.349 15.9282 11.349ZM15.9282 13.5306H8.45459C8.12354 13.5306 7.85498 13.2621 7.85498 12.931C7.85498 12.6 8.12354 12.3314 8.45459 12.3314H15.9282C16.2593 12.3314 16.5278 12.6 16.5278 12.931C16.5278 13.2621 16.2593 13.5306 15.9282 13.5306Z
" fill="black" fill-opacity="0.3"></path></svg>