<svg width="24" height="24" viewBox="0 0 24 24" fill="none" xmlns="http://www.w3.org/2000/svg"><rect width="24" height="24" fill="none" rx="0" ry="0"></rect><path fill-rule="evenodd" clip-rule="evenodd" d="M11.8787 7.45711C12.2692 7.06658 12.9024 7.06658 13.2929 7.45711L16.4142 10.5784L17.1213 11.2855C17.5118 11.6761 17.5118 12.3092 17.1213 12.6997L16.4142 13.4069L13.2929 16.5282C12.9024 16.9187 12.2692 16.9187 11.8787 16.5282C11.4882 16.1377 11.4882 15.5045 11.8787 15.114L13.9926 13H4C3.44772 13 3 12.5523 3 12C3 11.4477 3.44772 11 4 11H14C14.0025 11 14.0049 11 14.0074 11L11.8787 8.87132C11.4882 8.4808 11.4882 7.84763 11.8787 7.45711ZM15 11.9926C15 11.9926 15 11.9927 15 11.9927L15 11.9926L15 11.9926Z" fill="#ffffff"></path><path fill-rule="evenodd" clip-rule="evenodd" d="M7 4C7 3.44771 7.44772 3 8 3H20C20.5523 3 21 3.44772 21 4V20C21 20.5523 20.5523 21 20 21H8C7.44772 21 7 20.5523 7 20V14.75C7 14.3358 7.33579 14 7.75 14C8.16421 14 8.5 14.3358 8.5 14.75V19C8.5 19.2761 8.72386 19.5 9 19.5H19C19.2761 19.5 19.5 19.2761 19.5 19V5C19.5 4.72386 19.2761 4.5 19 4.5H9C8.72386 4.5 8.5 4.72386 8.5 5V9.24989C8.5 9.6641 8.16421 9.99989 7.75 9.99989C7.33579 9.99989 7 9.6641 7 9.24989V4Z" fill="#00a0e3"></path><path fill-rule="evenodd" clip-rule="evenodd" d="M13.2929 7.45711C12.9024 7.06658 12.2692 7.06658 11.8787 7.45711C11.4882 7.84763 11.4882 8.4808 11.8787 8.87132L15 11.9926L11.8787 15.114C11.4882 15.5045 11.4882 16.1377 11.8787 16.5282C12.2692 16.9187 12.9024 16.9187 13.2929 16.5282L16.4142 13.4069L17.1213 12.6997C17.5119 12.3092 17.5119 11.6761 17.1213 11.2855L16.4142 10.5784L13.2929 7.45711Z" fill="black" fill-opacity="0.3"></path></svg>