<svg width="24" height="24" viewBox="0 0 24 24" fill="none" xmlns="http://www.w3.org/2000/svg"><rect width="24" height="24" fill="none" rx="0" ry="0"></rect><path fill-rule="evenodd" clip-rule="evenodd" d="M3 3.2C3 3.08954 3.08954 3 3.2 3H4C4.11046 3 4.2 3.08954 4.2 3.2V19.6C4.2 19.7105 4.28954 19.8 4.4 19.8H20.8C20.9105 19.8 21 19.8895 21 20V20.8C21 20.9105 20.9105 21 20.8 21H3.5C3.22386 21 3 20.7761 3 20.5V3.2Z" fill="#ffffff"></path><path fill-rule="evenodd" clip-rule="evenodd" d="M11 5C11 4.44772 11.4477 4 12 4H14C14.5523 4 15 4.44772 15 5V17C15 17.5523 14.5523 18 14 18H12C11.4477 18 11 17.5523 11 17V5ZM16 9C16 8.44772 16.4477 8 17 8H19C19.5523 8 20 8.44772 20 9V17C20 17.5523 19.5523 18 19 18H17C16.4477 18 16 17.5523 16 17V9ZM7 10C6.44772 10 6 10.4477 6 11V17C6 17.5523 6.44772 18 7 18H9C9.55228 18 10 17.5523 10 17V11C10 10.4477 9.55228 10 9 10H7ZM7.4 11.2C7.28954 11.2 7.2 11.2895 7.2 11.4V16.6C7.2 16.7105 7.28954 16.8 7.4 16.8H8.6C8.71046 16.8 8.8 16.7105 8.8 16.6V11.4C8.8 11.2895 8.71046 11.2 8.6 11.2H7.4ZM17.4 9.2C17.2895 9.2 17.2 9.28954 17.2 9.4V16.6C17.2 16.7105 17.2895 16.8 17.4 16.8H18.6C18.7105 16.8 18.8 16.7105 18.8 16.6V9.4C18.8 9.28954 18.7105 9.2 18.6 9.2H17.4ZM12.4 5.2C12.2895 5.2 12.2 5.28954 12.2 5.4V16.6C12.2 16.7105 12.2895 16.8 12.4 16.8H13.6C13.7105 16.8 13.8 16.7105 13.8 16.6V5.4C13.8 5.28954 13.7105 5.2 13.6 5.2H12.4Z" fill="#00a0e3"></path><path fill-rule="evenodd" clip-rule="evenodd" d="M12 4C11.4477 4 11 4.44772 11 5V17C11 17.5523 11.4477 18 12 18H14C14.5523 18 15 17.5523 15 17V5C15 4.44772 14.5523 4 14 4H12ZM12.4 5.19995C12.2896 5.19995 12.2 5.28949 12.2 5.39995V16.6C12.2 16.7104 12.2896 16.8 12.4 16.8H13.6C13.7105 16.8 13.8 16.7104 13.8 16.6V5.39995C13.8 5.28949 13.7105 5.19995 13.6 5.19995H12.4Z" fill="black" fill-opacity="0.3"></path></svg>